<svg width="16" height="16" viewBox="0 0 16 16" fill="none" xmlns="http://www.w3.org/2000/svg">
<path d="M1.23005 9.36002C1.314 9.25876 1.4171 9.17506 1.53345 9.11371C1.6498 9.05236 1.7771 9.01456 1.90808 9.00249C2.03906 8.99041 2.17113 9.00429 2.29673 9.04334C2.42234 9.08238 2.539 9.14582 2.64005 9.23002L7.00005 12.86V1.00002C7.00005 0.734806 7.10541 0.480452 7.29294 0.292915C7.48048 0.105379 7.73484 2.28882e-05 8.00005 2.28882e-05C8.26527 2.28882e-05 8.51962 0.105379 8.70716 0.292915C8.89469 0.480452 9.00005 0.734806 9.00005 1.00002V12.86L13.3601 9.23002C13.4612 9.14598 13.5779 9.08267 13.7034 9.04372C13.829 9.00477 13.961 8.99093 14.092 9.003C14.2229 9.01507 14.3502 9.05282 14.4665 9.11407C14.5829 9.17533 14.686 9.2589 14.7701 9.36002C14.8541 9.46114 14.9174 9.57782 14.9564 9.70341C14.9953 9.82899 15.0091 9.96102 14.9971 10.0919C14.985 10.2229 14.9473 10.3501 14.886 10.4665C14.8247 10.5828 14.7412 10.686 14.6401 10.77L8.64005 15.77L8.49005 15.86L8.36005 15.93C8.12838 16.0194 7.87173 16.0194 7.64005 15.93L7.51005 15.86L7.36005 15.77L1.36005 10.77C1.25879 10.6861 1.17509 10.583 1.11374 10.4666C1.05239 10.3503 1.01459 10.223 1.00251 10.092C0.990439 9.96102 1.00432 9.82895 1.04337 9.70334C1.08241 9.57774 1.14585 9.46107 1.23005 9.36002Z" fill="black"/>
</svg>
