<svg width="16" height="16" viewBox="0 0 16 16" fill="none" xmlns="http://www.w3.org/2000/svg">
<path d="M1.23005 6.63998C1.314 6.74124 1.4171 6.82494 1.53345 6.88629C1.6498 6.94764 1.7771 6.98544 1.90808 6.99751C2.03906 7.00959 2.17113 6.99571 2.29673 6.95666C2.42234 6.91762 2.539 6.85418 2.64005 6.76998L7.00005 3.13998V15C7.00005 15.2652 7.10541 15.5195 7.29294 15.7071C7.48048 15.8946 7.73484 16 8.00005 16C8.26527 16 8.51962 15.8946 8.70716 15.7071C8.89469 15.5195 9.00005 15.2652 9.00005 15V3.13998L13.3601 6.76998C13.4612 6.85402 13.5779 6.91733 13.7034 6.95628C13.829 6.99523 13.961 7.00907 14.092 6.997C14.2229 6.98493 14.3502 6.94718 14.4665 6.88593C14.5829 6.82467 14.686 6.7411 14.7701 6.63998C14.8541 6.53886 14.9174 6.42218 14.9564 6.29659C14.9953 6.17101 15.0091 6.03898 14.9971 5.90805C14.985 5.77712 14.9473 5.64985 14.886 5.53351C14.8247 5.41716 14.7412 5.31402 14.6401 5.22998L8.64005 0.229977L8.49005 0.139977L8.36005 0.0699774C8.12838 -0.0194195 7.87173 -0.0194195 7.64005 0.0699774L7.51005 0.139977L7.36005 0.229977L1.36005 5.22998C1.25879 5.31393 1.17509 5.41703 1.11374 5.53337C1.05239 5.64972 1.01459 5.77703 1.00251 5.90801C0.990439 6.03898 1.00432 6.17105 1.04337 6.29666C1.08241 6.42226 1.14585 6.53893 1.23005 6.63998Z" fill="black"/>
</svg>
