<svg width="13" height="8" viewBox="0 0 13 8" fill="none" xmlns="http://www.w3.org/2000/svg">
<path fill-rule="evenodd" clip-rule="evenodd" d="M0.482882 0.457222C0.750502 0.269888 1.10305 0.361007 1.27031 0.660742C1.68504 1.40395 2.13189 2.03026 2.59789 2.54371C3.31262 3.33121 4.07046 3.85095 4.83022 4.12506C5.6981 4.43817 6.58789 4.43817 7.45577 4.12506C8.21551 3.85096 8.97333 3.33122 9.68804 2.54371C10.154 2.03033 10.6007 1.40397 11.0154 0.660742C11.1827 0.361007 11.5353 0.269888 11.8029 0.457222C12.0705 0.644557 12.1518 1.03941 11.9846 1.33914C11.6374 1.96125 11.2645 2.51877 10.8701 3.01L11.9224 4.30313C12.1349 4.56438 12.1182 4.96917 11.8849 5.20726C11.6517 5.44535 11.2903 5.42658 11.0777 5.16533L10.0522 3.90511C9.50609 4.42607 8.92814 4.83408 8.32884 5.12329L8.7744 6.81928C8.86348 7.15837 8.69027 7.51414 8.38751 7.61391C8.08475 7.71369 7.7671 7.51969 7.67802 7.1806L7.23961 5.51186C6.51222 5.68258 5.7737 5.68257 5.04631 5.51184L4.60772 7.18066C4.5186 7.51974 4.20093 7.71371 3.89819 7.6139C3.59544 7.51409 3.42226 7.1583 3.51137 6.81922L3.9571 5.12327C3.35779 4.83405 2.77982 4.42604 2.23371 3.90508L1.20806 5.16536C0.995463 5.42659 0.634042 5.44534 0.400801 5.20723C0.167561 4.96913 0.150824 4.56433 0.363419 4.3031L1.41578 3.01C1.02134 2.5188 0.648364 1.96132 0.301168 1.33914C0.133905 1.03941 0.215261 0.644557 0.482882 0.457222Z" fill="#97999B"/>
</svg>
