<svg width="139" height="20" viewBox="0 0 139 20" fill="none" xmlns="http://www.w3.org/2000/svg">
<path d="M65.278 1.75485L59.3876 16.744H63.5259L67.4966 5.64063L71.4658 16.744H75.6063L69.716 1.75485H65.278Z" fill="black"/>
<path d="M98.4295 1.38177C93.6669 1.38177 90.1688 4.46796 90.1688 9.24869C90.1688 14.0996 93.5891 17.1156 98.4295 17.1156C103.27 17.1156 106.69 14.1004 106.69 9.24869C106.69 4.39472 103.27 1.38177 98.4295 1.38177ZM98.4295 13.7906C95.8749 13.7906 94.0904 11.9244 94.0904 9.24869C94.0904 6.57298 95.8749 4.70677 98.4295 4.70677C101.068 4.70677 102.77 6.48982 102.77 9.24869C102.77 11.9633 101.028 13.7906 98.4295 13.7906Z" fill="black"/>
<path d="M47.742 1.75485L41.2772 16.744H45.7038L51.7905 13.1871H46.7871L49.7689 5.44683L54.1216 16.744H58.2606L51.7958 1.75485H47.742Z" fill="black"/>
<path d="M82.9687 1.75485H76.8118V16.744H80.7312V5.05772H82.6652C84.0565 5.05772 85.2764 5.77872 85.2764 7.35195C85.2764 8.92747 84.0565 9.64771 82.6652 9.64771H81.6137L83.3907 12.6545C86.26 12.6545 89.0236 10.8494 89.0236 7.10704C89.0251 3.36776 86.2939 1.75485 82.9687 1.75485Z" fill="black"/>
<path d="M132.537 1.75485H128.479L122.017 16.744H126.153L130.509 5.44683L133.491 13.1871H128.485L134.574 16.744H139L132.537 1.75485Z" fill="black"/>
<path d="M116.071 4.71971C117.445 4.71971 118.82 5.14315 119.867 5.72682L121.152 2.75203C119.668 1.88454 117.816 1.38785 116.129 1.38785C110.822 1.38785 107.996 5.19504 107.996 9.25019C107.996 13.3053 110.822 17.1156 116.129 17.1156C117.816 17.1156 119.668 16.6196 121.152 15.7483L119.867 12.7751C118.82 13.3595 117.445 13.7822 116.071 13.7822C113.96 13.7822 111.928 12.0106 111.928 9.25095C111.928 6.49055 113.96 4.71971 116.071 4.71971Z" fill="black"/>
<path d="M8.55889 0L0 4.99588H17.1193L8.55889 0Z" fill="black"/>
<path d="M0 14.9838L8.55889 19.9812L0 4.99585V14.9838Z" fill="black"/>
<path d="M17.1193 14.9869V4.99585L8.55887 19.9812L17.1193 14.9869Z" fill="black"/>
<path d="M25.6795 19.9812L17.1191 14.9838H34.2414L25.6795 19.9812Z" fill="black"/>
<path d="M17.1192 4.99588L25.6796 0L17.1192 14.9838V4.99588Z" fill="black"/>
<path d="M34.2415 4.9936V14.9838L25.6796 0L34.2415 4.9936Z" fill="black"/>
</svg>
