<svg width="24" height="24" viewBox="0 0 24 24" fill="none" xmlns="http://www.w3.org/2000/svg">
<path d="M21 5.99991H16V4.32991C15.9765 3.68973 15.7002 3.08497 15.2316 2.64821C14.7629 2.21144 14.1402 1.97831 13.5 1.99991H10.5C9.85975 1.97831 9.23706 2.21144 8.76843 2.64821C8.2998 3.08497 8.02346 3.68973 8 4.32991V5.99991H3C2.73478 5.99991 2.48043 6.10527 2.29289 6.29281C2.10536 6.48034 2 6.7347 2 6.99991C2 7.26513 2.10536 7.51948 2.29289 7.70702C2.48043 7.89456 2.73478 7.99991 3 7.99991H4V18.9999C4 19.7956 4.31607 20.5586 4.87868 21.1212C5.44129 21.6838 6.20435 21.9999 7 21.9999H17C17.7956 21.9999 18.5587 21.6838 19.1213 21.1212C19.6839 20.5586 20 19.7956 20 18.9999V7.99991H21C21.2652 7.99991 21.5196 7.89456 21.7071 7.70702C21.8946 7.51948 22 7.26513 22 6.99991C22 6.7347 21.8946 6.48034 21.7071 6.29281C21.5196 6.10527 21.2652 5.99991 21 5.99991ZM10 4.32991C10 4.16991 10.21 3.99991 10.5 3.99991H13.5C13.79 3.99991 14 4.16991 14 4.32991V5.99991H10V4.32991ZM18 18.9999C18 19.2651 17.8946 19.5195 17.7071 19.707C17.5196 19.8946 17.2652 19.9999 17 19.9999H7C6.73478 19.9999 6.48043 19.8946 6.29289 19.707C6.10536 19.5195 6 19.2651 6 18.9999V7.99991H18V18.9999Z" fill="#F6756D"/>
<path d="M10 17C10.2652 17 10.5196 16.8946 10.7071 16.7071C10.8946 16.5196 11 16.2652 11 16V12C11 11.7348 10.8946 11.4804 10.7071 11.2929C10.5196 11.1054 10.2652 11 10 11C9.73478 11 9.48043 11.1054 9.29289 11.2929C9.10536 11.4804 9 11.7348 9 12V16C9 16.2652 9.10536 16.5196 9.29289 16.7071C9.48043 16.8946 9.73478 17 10 17Z" fill="#F6756D"/>
<path d="M14 17C14.2652 17 14.5196 16.8946 14.7071 16.7071C14.8946 16.5196 15 16.2652 15 16V12C15 11.7348 14.8946 11.4804 14.7071 11.2929C14.5196 11.1054 14.2652 11 14 11C13.7348 11 13.4804 11.1054 13.2929 11.2929C13.1054 11.4804 13 11.7348 13 12V16C13 16.2652 13.1054 16.5196 13.2929 16.7071C13.4804 16.8946 13.7348 17 14 17Z" fill="#F6756D"/>
</svg>
